<?xml version="1.0" encoding="UTF-8" standalone="no"?>
<!-- Created with Inkscape (http://www.inkscape.org/) -->

<svg
   width="48"
   height="48"
   viewBox="0 0 12.7 12.7"
   version="1.1"
   id="svg1"
   inkscape:version="1.3 (0e150ed6c4, 2023-07-21)"
   xml:space="preserve"
   xmlns:inkscape="http://www.inkscape.org/namespaces/inkscape"
   xmlns:sodipodi="http://sodipodi.sourceforge.net/DTD/sodipodi-0.dtd"
   xmlns="http://www.w3.org/2000/svg"
   xmlns:svg="http://www.w3.org/2000/svg"><sodipodi:namedview
     id="namedview1"
     pagecolor="#ffffff"
     bordercolor="#000000"
     borderopacity="0.25"
     inkscape:showpageshadow="2"
     inkscape:pageopacity="0.0"
     inkscape:pagecheckerboard="0"
     inkscape:deskcolor="#d1d1d1"
     inkscape:document-units="mm"
     inkscape:zoom="22.627417"
     inkscape:cx="0.24306796"
     inkscape:cy="28.969281"
     inkscape:window-width="3840"
     inkscape:window-height="2054"
     inkscape:window-x="-11"
     inkscape:window-y="-11"
     inkscape:window-maximized="1"
     inkscape:current-layer="layer1" /><defs
     id="defs1" /><g
     inkscape:label="Layer 1"
     inkscape:groupmode="layer"
     id="layer1"><circle
       style="fill:#0a9b94;fill-opacity:1;stroke-width:5.34505"
       id="path6"
       cx="6.3499999"
       cy="6.3499999"
       r="6.3499999" /><g
       id="g6"
       transform="translate(0.10000644,0.00490244)"><path
         id="path1"
         style="fill:#ffffff;fill-opacity:1;stroke-width:4.99999"
         d="M 8.7858453,1.7809016 C 8.625182,1.7827376 8.3926937,1.9476904 8.1631443,2.31937 7.424977,1.9598591 6.5618979,1.982189 5.7172988,3.1606623 5.0477956,4.0948233 4.8285207,4.4042263 4.5370091,4.6799494 3.7958796,5.3809389 3.6055043,5.2839773 3.1252089,5.1512385 2.8818439,5.0839799 2.8600329,5.3095968 3.0135878,5.3982518 L 5.2067356,6.6648412 6.0201227,5.358461 7.2024794,6.0715957 6.4852106,7.4027806 8.7083307,8.6859064 C 8.8618854,8.7745613 9.046907,8.6434126 8.8669773,8.4662816 8.5118739,8.1167028 8.3322943,7.9997876 8.5688043,7.0074559 8.6618317,6.6171379 8.8206027,6.2730566 9.2948582,5.2261693 9.8931462,3.9054883 9.4802271,3.1463057 8.799798,2.6867894 9.1026023,2.1244347 9.020661,1.7782181 8.7858453,1.7809016 Z" /><path
         id="rect4"
         style="fill:#ffffff;fill-opacity:1;stroke-width:4.99999"
         d="M 6.1093513,5.7027711 3.4611924,10.289517 3.6272652,10.909309 4.2498806,10.742479 6.8970059,6.1575237 Z" /></g></g></svg>
